<svg width="24" height="24" viewBox="0 0 24 24" fill="none" xmlns="http://www.w3.org/2000/svg">
<path d="M15.0006 23.7498H9.00063C7.68063 23.7498 6.58063 23.6198 5.65063 23.3398C5.31063 23.2398 5.09063 22.9098 5.11063 22.5598C5.36063 19.5698 8.39063 17.2197 12.0006 17.2197C15.6106 17.2197 18.6306 19.5598 18.8906 22.5598C18.9206 22.9198 18.7006 23.2398 18.3506 23.3398C17.4206 23.6198 16.3206 23.7498 15.0006 23.7498ZM6.72063 22.0598C7.38063 22.1898 8.13063 22.2498 9.00063 22.2498H15.0006C15.8706 22.2498 16.6206 22.1898 17.2806 22.0598C16.7506 20.1398 14.5606 18.7197 12.0006 18.7197C9.44063 18.7197 7.25063 20.1398 6.72063 22.0598Z" fill="#9197B3"/>
<path d="M15 3H9C4 3 2 5 2 10V16C2 19.78 3.14 21.85 5.86 22.62C6.08 20.02 8.75 17.97 12 17.97C15.25 17.97 17.92 20.02 18.14 22.62C20.86 21.85 22 19.78 22 16V10C22 5 20 3 15 3ZM12 15.17C10.02 15.17 8.42 13.56 8.42 11.58C8.42 9.60002 10.02 8 12 8C13.98 8 15.58 9.60002 15.58 11.58C15.58 13.56 13.98 15.17 12 15.17Z" stroke="#9197B3" stroke-width="1.5" stroke-linecap="round" stroke-linejoin="round"/>
<path d="M11.9999 15.92C9.60992 15.92 7.66992 13.97 7.66992 11.58C7.66992 9.19002 9.60992 7.25 11.9999 7.25C14.3899 7.25 16.3299 9.19002 16.3299 11.58C16.3299 13.97 14.3899 15.92 11.9999 15.92ZM11.9999 8.75C10.4399 8.75 9.16992 10.02 9.16992 11.58C9.16992 13.15 10.4399 14.42 11.9999 14.42C13.5599 14.42 14.8299 13.15 14.8299 11.58C14.8299 10.02 13.5599 8.75 11.9999 8.75Z" fill="#9197B3"/>
</svg>
